<?xml version="1.0" standalone="no"?><!DOCTYPE svg PUBLIC "-//W3C//DTD SVG 1.1//EN" "http://www.w3.org/Graphics/SVG/1.1/DTD/svg11.dtd"><svg t="1607225571443" class="icon" viewBox="0 0 1024 1024" version="1.1" xmlns="http://www.w3.org/2000/svg" p-id="971" xmlns:xlink="http://www.w3.org/1999/xlink" width="200" height="200"><defs><style type="text/css"></style></defs><path d="M768 0H256a170.666667 170.666667 0 0 0-170.666667 170.666667v683.434666l0.256 6.741334a167.424 167.424 0 0 0 177.578667 157.354666l11.605333-1.536a85.333333 85.333333 0 0 0 31.914667-13.738666l82.090667-57.685334 65.877333 45.312 9.386667 5.546667a85.333333 85.333333 0 0 0 90.026666-7.424l59.392-44.458667 101.12 61.696a85.333333 85.333333 0 0 0 39.338667 12.373334l10.325333 0.426666H768a170.666667 170.666667 0 0 0 170.666667-170.666666V170.666667a170.666667 170.666667 0 0 0-170.666667-170.666667z m0 85.333333a85.333333 85.333333 0 0 1 85.333333 85.333334v677.461333a85.333333 85.333333 0 0 1-75.349333 84.736l-12.544 0.512-6.485333-0.341333-150.186667-91.648-105.728 78.848-114.602667-78.848-130.730666 91.648a81.834667 81.834667 0 0 1-86.869334-76.373334L170.666667 170.666667a85.333333 85.333333 0 0 1 85.333333-85.333334h512z" fill="" p-id="972"></path><path d="M256 256m42.666667 0l170.666666 0q42.666667 0 42.666667 42.666667l0 0q0 42.666667-42.666667 42.666666l-170.666666 0q-42.666667 0-42.666667-42.666666l0 0q0-42.666667 42.666667-42.666667Z" fill="" p-id="973"></path><path d="M256 426.666667m42.666667 0l256 0q42.666667 0 42.666666 42.666666l0 0q0 42.666667-42.666666 42.666667l-256 0q-42.666667 0-42.666667-42.666667l0 0q0-42.666667 42.666667-42.666666Z" fill="" p-id="974"></path><path d="M256 597.333333m42.666667 0l341.333333 0q42.666667 0 42.666667 42.666667l0 0q0 42.666667-42.666667 42.666667l-341.333333 0q-42.666667 0-42.666667-42.666667l0 0q0-42.666667 42.666667-42.666667Z" fill="" p-id="975"></path></svg>